<svg xmlns="http://www.w3.org/2000/svg" viewBox="0 0 100 100">
  <defs>
    <linearGradient id="kidGradient" x1="0%" y1="0%" x2="100%" y2="100%">
      <stop offset="0%" style="stop-color:#8B5CF6;stop-opacity:1" />
      <stop offset="50%" style="stop-color:#3B82F6;stop-opacity:1" />
      <stop offset="100%" style="stop-color:#10B981;stop-opacity:1" />
    </linearGradient>
  </defs>
  
  <!-- Background circle -->
  <circle cx="50" cy="50" r="45" fill="url(#kidGradient)" stroke="#ffffff" stroke-width="4"/>
  
  <!-- Baby face -->
  <circle cx="50" cy="40" r="20" fill="#FFE4B5" stroke="#E6B800" stroke-width="2"/>
  
  <!-- Eyes -->
  <circle cx="44" cy="36" r="3" fill="#2D3748"/>
  <circle cx="56" cy="36" r="3" fill="#2D3748"/>
  
  <!-- Smile -->
  <path d="M 42 44 Q 50 50 58 44" stroke="#E6B800" stroke-width="3" fill="none" stroke-linecap="round"/>
  
  <!-- Growth chart lines -->
  <path d="M 20 70 L 35 65 L 45 75 L 60 60 L 80 55" stroke="#ffffff" stroke-width="3" fill="none" stroke-linecap="round"/>
  <path d="M 20 80 L 35 78 L 45 85 L 60 72 L 80 70" stroke="#ffffff" stroke-width="2" fill="none" stroke-linecap="round"/>
  
  <!-- Small hearts -->
  <path d="M 25 25 C 25 22, 30 22, 30 25 C 30 22, 35 22, 35 25 C 35 30, 30 32, 30 32 C 30 32, 25 30, 25 25 Z" fill="#FF69B4"/>
  <path d="M 70 80 C 70 78, 73 78, 73 80 C 73 78, 76 78, 76 80 C 76 83, 73 84, 73 84 C 73 84, 70 83, 70 80 Z" fill="#FF69B4"/>
</svg>